<svg version="1.1" xmlns="http://www.w3.org/2000/svg" xmlns:xlink="http://www.w3.org/1999/xlink" width="500.18359" height="82.64195" viewBox="0,0,500.18359,82.64195"><g transform="translate(10.00597,-280.18715)"><g data-paper-data="{&quot;isPaintingLayer&quot;:true}" fill-rule="nonzero" stroke-linejoin="miter" stroke-miterlimit="10" stroke-dasharray="" stroke-dashoffset="0" style="mix-blend-mode: normal"><path d="M488.17762,298.90948h-496.18359" fill="none" stroke="#000000" stroke-width="4" stroke-linecap="round"/><path d="M386.8015,352.06411v-45.04504h68.98709v45.04504z" fill="none" stroke="#000000" stroke-width="4" stroke-linecap="butt"/><path d="M386.18587,285.07861l0.89293,23.21623" fill="none" stroke="#000000" stroke-width="4" stroke-linecap="round"/><path d="M387.97173,321.92654v-11.84583h13.86942v11.84583z" fill="#000000" stroke="#000000" stroke-width="4" stroke-linecap="butt"/><path d="M388.38525,351.16939v-11.84583h13.86942v11.84583z" fill="#000000" stroke="#000000" stroke-width="4" stroke-linecap="butt"/><path d="M404.52385,336.51303v-11.84584h13.86942v11.84584z" fill="#000000" stroke="#000000" stroke-width="4" stroke-linecap="butt"/><path d="M421.31767,321.20145v-11.84584h13.86942v11.84584z" fill="#000000" stroke="#000000" stroke-width="4" stroke-linecap="butt"/><path d="M422.38639,351.09951v-11.84584h13.86942v11.84584z" fill="#000000" stroke="#000000" stroke-width="4" stroke-linecap="butt"/><path d="M438.525,337.09836v-11.84584h13.86942v11.84584z" fill="#000000" stroke="#000000" stroke-width="4" stroke-linecap="butt"/><path d="M11.37668,352.67911v-45.04504h68.98708v45.04504z" fill="none" stroke="#000000" stroke-width="4" stroke-linecap="butt"/><path d="M79.83012,287.19512l0.89293,23.21623" fill="none" stroke="#000000" stroke-width="4" stroke-linecap="round"/><path d="M48.4784,332.57294l-20.69238,10.03267v-23.20054z" fill="#000000" stroke="#000000" stroke-width="4" stroke-linecap="round"/><text transform="translate(85.33547,346.8057) scale(1.49479,1.16667)" font-size="40" xml:space="preserve" fill="#000000" fill-rule="nonzero" stroke="#000000" stroke-width="4" stroke-linecap="butt" stroke-linejoin="miter" stroke-miterlimit="10" stroke-dasharray="" stroke-dashoffset="0" font-family="Sans Serif" font-weight="normal" text-anchor="start" style="mix-blend-mode: normal"><tspan x="0" dy="0">+</tspan></text><text transform="translate(344.08922,342.79669) scale(2.89371,1.16667)" font-size="40" xml:space="preserve" fill="#000000" fill-rule="nonzero" stroke="none" stroke-width="1" stroke-linecap="butt" stroke-linejoin="miter" stroke-miterlimit="10" stroke-dasharray="" stroke-dashoffset="0" font-family="Sans Serif" font-weight="normal" text-anchor="start" style="mix-blend-mode: normal"><tspan x="0" dy="0">-</tspan></text><path d="M250.61979,296.70367l-25.52552,-16.51651l21.02102,15.01502l-24.02402,-15.01502l-4.5045,46.54654" fill="none" stroke="none" stroke-width="0" stroke-linecap="round"/><path d="M253.3988,288.26609l26.78662,10.17516l-24.02155,12.32484" fill="none" stroke="#000000" stroke-width="2" stroke-linecap="round"/><path d="M118.89881,287.76609l26.78662,10.17516l-24.02155,12.32484" fill="none" stroke="#000000" stroke-width="2" stroke-linecap="round"/><path d="M180.89881,287.76609l26.78662,10.17516l-24.02156,12.32484" fill="none" stroke="#000000" stroke-width="2" stroke-linecap="round"/><path d="M321.89881,288.76609l26.78662,10.17516l-24.02156,12.32484" fill="none" stroke="#000000" stroke-width="2" stroke-linecap="round"/></g></g></svg>